# xmcd
#
# Track frame offsets:
# 150
# 19385
# 37325
# 57640
# 75397
# 94190
# 110782
# 132855
# 152482
# 166440
#
# Disc length: 2427 seconds
#
#
# Revision: 0
# Processed by: cddbd v1.5.1PL0 Copyright (c) Steve Scherf et al.
# Submitted via: FreeRIP 2.80 
#
DISCID=8609790a
DTITLE=Janis Joplin - Janis Joplin Super Hits
DYEAR=1970
DGENRE=Psychedelic Rock
TTITLE0=Peace of My Heart
TTITLE1=Cry Baby
TTITLE2=Me and Bobby McGee
TTITLE3=Try (Just a Little Bit Harder)
TTITLE4=One Good Man
TTITLE5=Move Over
TTITLE6=I Need a Man to Love
TTITLE7=Turtle Blues
TTITLE8=One Night Stand
TTITLE9=A Woman Left Lonely
EXTD=
EXTT0=
EXTT1=
EXTT2=
EXTT3=
EXTT4=
EXTT5=
EXTT6=
EXTT7=
EXTT8=
EXTT9=
PLAYORDER=
